<svg xmlns:svg="http://www.w3.org/2000/svg" xmlns="http://www.w3.org/2000/svg" width="210" height="297" viewBox="0 0 744.1 1052.4" version="1.1">
    <style>
        .s0 {
            fill:#000;
            stroke:#000;
        }
    </style>
    <g>
        <path d="m357.1 3.8c-120 0-128.6 128.6-128.6 128.6l0 405.7c0 117.5 118.6 118.6 118.6 118.6 0 0 126.6-1.4 126.6-118.6l0-408.6C470.9 3.8 357.1 3.8 357.1 3.8Z" class="s0"/>
        <g>
            <path d="m153.7 486.2c1.7 171.4 60 237.1 191.1 241 146.6 0 211.2-69.6 211.2-241l90.3 0c0 378.3-298.1 311-298.1 311 0 0-282.6 67.2-282.6-311zM301.7 775.6l0 244 0-20-103.1 0 0 52.8 307.9 0 0-52.2-106.6 0 0-225.7M301.7 775.6l0 244 0-20-103.1 0 0 52.8 307.9 0 0-52.2-106.6 0 0-225.7M301.7 775.6l0 244 0-20-103.1 0 0 52.8 307.9 0 0-52.2-106.6 0 0-225.7M301.7 775.6l0 244 0-20-103.1 0 0 52.8 307.9 0 0-52.2-106.6 0 0-225.7" class="s0"/>
            <path d="m301.7 775.6 0 244 0-20-103.1 0 0 52.8 307.9 0 0-52.2-106.6 0 0-225.7z" class="s0"/>
        </g>
    </g>
</svg>