<?xml version="1.0" encoding="UTF-8" standalone="no"?>
<svg width="521px" height="121px" viewBox="0 0 521 121" version="1.1" xmlns="http://www.w3.org/2000/svg" xmlns:xlink="http://www.w3.org/1999/xlink" xmlns:sketch="http://www.bohemiancoding.com/sketch/ns">
    <!-- Generator: Sketch 3.3.1 (12002) - http://www.bohemiancoding.com/sketch -->
    <title>Untitled</title>
    <desc>Created with Sketch.</desc>
    <defs></defs>
    <g id="Page-1" stroke="none" stroke-width="1" fill="none" fill-rule="evenodd" sketch:type="MSPage">
        <path d="M4,82.9536528 C20.9456367,78.6806526 48.9384232,72.5943122 50.7691873,50.7047751 C51.1166667,46.5593128 50.032839,34.5055396 44.8379738,32.7823391 C38.7315768,30.758034 34.3481386,44.5273363 33.2460225,49.202129 C30.1812734,62.1889428 30.0753933,85.5168776 49.9279213,81.6495055 C68.8496667,77.9614537 70.3214007,57.0692058 74.345809,43.1493512 C72.8952509,57.3990783 91.8295094,51.0710871 91.4435281,40.6139354 C91.6543258,47.9334621 87.6347303,54.8176338 87.3430787,62.2196287 C87.0995543,68.4009033 90.3635506,80.5544054 98.8618764,80.3463172 C107.112828,80.1449415 115.862378,63.9399524 117.925116,57.3942836 C119.629787,51.9820724 120.149562,46.1297114 121.319056,40.6005104 C115.952858,54.7313299 128.189715,63.5899423 141.452648,57.8277208 C148.422449,54.801332 157.223978,32.868643 146.875637,38.3729117 C138.61891,42.7648195 134.764873,76.0694812 143.627041,80.1161735 C158.606195,86.9552754 169.571528,56.9896144 168.717749,46.0184753 C168.738925,63.4365132 185.032918,53.1893675 191.117176,44.0123899 C190.495371,51.6368569 183.004831,73.7344822 197.849228,74.8746521 C210.715592,75.861393 214.280865,54.4177592 217.573738,46.0155985 C197.278438,95.7448446 257.032382,53.3744414 246.818798,40.4307794 C241.629708,60.5309497 241.845318,81.3838814 232.468187,100.405253 C229.200341,107.034349 224.185472,115.237052 215.639981,112.101345 C209.010921,109.669494 203.447401,99.4702948 205.375382,92.5583141 C209.605775,77.394725 232.160172,77.3410248 243.130318,70.8442616 C253.708708,64.5805188 261.093367,55.7967032 264.852112,44.6021329 C262.34179,54.9844879 256.341273,70.9612513 272.428318,67.9473285 C284.885599,65.6132884 285.669112,55.2251798 288.086067,44.6702171 C284.364861,49.609675 283.144352,72.4044437 292.748644,71.3850992 C295.49864,71.0926249 304.789142,60.1502537 306.369644,57.782651 C309.222633,53.5077329 309.422843,48.7725275 310.268921,43.9932112 C308.096453,47.3504316 308.216772,52.8777147 311.846536,55.3124426 C317.917318,59.3831083 328.052936,52.8105895 332.584607,49.2145951 C340.327333,43.0726367 341.547843,31.6383334 341.565169,22.1736762 C341.573831,17.4394297 342.721187,6.9937852 338.855599,4 C332.635622,14.0927576 331.810719,28.3693348 329.367775,39.7806237 C327.074989,50.4918923 322.383536,61.651941 322.554869,72.695959 C325.464648,61.4256331 325.480049,52.2055035 334.756112,43.7534783 C346.439506,33.107417 344.892693,45.6368204 345.623266,54.4407736 C346.459719,64.5306544 352.542052,76.7560764 363.95882,78.7957244 C378.977438,81.4788157 380.676333,63.3319896 379.016903,53.041692 C377.82527,45.6512044 374.105026,42.8626306 370.212487,50.453535 C367.141,56.4411054 367.559708,69.0596895 373.430281,73.5321475 C380.863067,79.1927222 385.576659,72.5041726 388.846431,66.0687811 C392.913191,58.0664949 391.221996,54.0744616 391.71482,46.0002556 C393.040247,53.2545749 395.851846,58.7291168 404.407925,56.6645365 C409.958933,55.3258677 420.015622,47.7263329 420.350588,41.8145181 C424.297993,53.4281416 430.112738,69.9332764 443.379521,74.87657 C460.035431,81.0818179 480.941948,62.3001789 477.865648,45.1065311 C474.081876,23.9592073 454.15427,45.4009232 452.693124,56.7537172 C448.703367,87.7550246 493.109502,90.9070335 513.065985,83.6296998" id="everywhere" stroke="#126B73" stroke-width="6" stroke-linecap="round" stroke-linejoin="round" sketch:type="MSShapeGroup"></path>
    </g>
</svg>