<svg class="mic" xmlns:svg="http://www.w3.org/2000/svg" xmlns="http://www.w3.org/2000/svg" width="10" height="20" viewBox="0 0 10 20" version="1.1">
    <style>
        .mic {
            fill:#FF0000;
        }
    </style>
    <g class="mic" transform="translate(0,-1032.3622)">
        <path d="m5 1044.6c1.5 0 2.8-1.2 2.8-2.8l0-6.6c0-1.5-1.2-2.8-2.8-2.8-1.5 0-2.8 1.2-2.8 2.8l0 6.6c0 1.5 1.2 2.8 2.8 2.8zM8.9 1040.2l0 1.7" fill="#000"/>
        <path d="m8.9 1040.2 0 1.7c0 2.1-1.7 3.9-3.9 3.9-2.1 0-3.9-1.7-3.9-3.9l0-1.7-1.1 0 0 1.7c0 2.6 1.9 4.7 4.4 4.9l0 2.2-2.2 0 0 1.1 5.5 0 0-1.1-2.2 0 0-2.2c2.5-0.3 4.4-2.4 4.4-4.9l0-1.7z" fill="#000"/>
    </g>
</svg>