<svg id="svg-signature" width="521" height="121" viewBox="0 0 521 121" version="1.1" xmlns="http://www.w3.org/2000/svg"><g stroke="none" stroke-width="1" fill="none" fill-rule="evenodd"><path class="signature-line" d="M4 83C20.9 78.7 48.9 72.6 50.8 50.7 51.1 46.6 50 34.5 44.8 32.8 38.7 30.8 34.3 44.5 33.2 49.2 30.2 62.2 30.1 85.5 49.9 81.6 68.8 78 70.3 57.1 74.3 43.1 72.9 57.4 91.8 51.1 91.4 40.6 91.7 47.9 87.6 54.8 87.3 62.2 87.1 68.4 90.4 80.6 98.9 80.3 107.1 80.1 115.9 63.9 117.9 57.4 119.6 52 120.1 46.1 121.3 40.6 116 54.7 128.2 63.6 141.5 57.8 148.4 54.8 157.2 32.9 146.9 38.4 138.6 42.8 134.8 76.1 143.6 80.1 158.6 87 169.6 57 168.7 46 168.7 63.4 185 53.2 191.1 44 190.5 51.6 183 73.7 197.8 74.9 210.7 75.9 214.3 54.4 217.6 46 197.3 95.7 257 53.4 246.8 40.4 241.6 60.5 241.8 81.4 232.5 100.4 229.2 107 224.2 115.2 215.6 112.1 209 109.7 203.4 99.5 205.4 92.6 209.6 77.4 232.2 77.3 243.1 70.8 253.7 64.6 261.1 55.8 264.9 44.6 262.3 55 256.3 71 272.4 67.9 284.9 65.6 285.7 55.2 288.1 44.7 284.4 49.6 283.1 72.4 292.7 71.4 295.5 71.1 304.8 60.2 306.4 57.8 309.2 53.5 309.4 48.8 310.3 44 308.1 47.4 308.2 52.9 311.8 55.3 317.9 59.4 328.1 52.8 332.6 49.2 340.3 43.1 341.5 31.6 341.6 22.2 341.6 17.4 342.7 7 338.9 4 332.6 14.1 331.8 28.4 329.4 39.8 327.1 50.5 322.4 61.7 322.6 72.7 325.5 61.4 325.5 52.2 334.8 43.8 346.4 33.1 344.9 45.6 345.6 54.4 346.5 64.5 352.5 76.8 364 78.8 379 81.5 380.7 63.3 379 53 377.8 45.7 374.1 42.9 370.2 50.5 367.1 56.4 367.6 69.1 373.4 73.5 380.9 79.2 385.6 72.5 388.8 66.1 392.9 58.1 391.2 54.1 391.7 46 393 53.3 395.9 58.7 404.4 56.7 410 55.3 420 47.7 420.4 41.8 424.3 53.4 430.1 69.9 443.4 74.9 460 81.1 480.9 62.3 477.9 45.1 474.1 24 454.2 45.4 452.7 56.8 448.7 87.8 493.1 90.9 513.1 83.6" stroke="#126B73" stroke-width="6" stroke-linecap="round" stroke-linejoin="round"/></g></svg>